<svg width="337" height="418" viewBox="0 0 337 418" fill="none" xmlns="http://www.w3.org/2000/svg">
<mask id="path-1-outside-1_129_2806" maskUnits="userSpaceOnUse" x="-8.74228e-08" y="-2.93741e-05" width="337" height="605" fill="black">
<rect fill="white" x="-8.74228e-08" y="-2.93741e-05" width="337" height="605"/>
<path fill-rule="evenodd" clip-rule="evenodd" d="M1.00006 576C1.00006 591.464 13.5361 604 29.0001 604L308 604C323.464 604 336 591.464 336 576L336 65.7283C336 50.2643 323.464 37.7283 308 37.7283L162.283 37.7283C153.877 37.7283 145.915 33.9515 140.597 27.4411L127.403 11.2872C122.085 4.77685 114.123 1.0001 105.717 1.0001L29 1.0001C13.5361 1.00009 1.00003 13.5361 1.00004 29.0001L1.00005 37.7282L1.00006 576Z"/>
</mask>
<path fill-rule="evenodd" clip-rule="evenodd" d="M1.00006 576C1.00006 591.464 13.5361 604 29.0001 604L308 604C323.464 604 336 591.464 336 576L336 65.7283C336 50.2643 323.464 37.7283 308 37.7283L162.283 37.7283C153.877 37.7283 145.915 33.9515 140.597 27.4411L127.403 11.2872C122.085 4.77685 114.123 1.0001 105.717 1.0001L29 1.0001C13.5361 1.00009 1.00003 13.5361 1.00004 29.0001L1.00005 37.7282L1.00006 576Z" fill="#191919" fill-opacity="0.9"/>
<path d="M1.00005 37.7282L2.00005 37.7282L2.00005 37.7282L1.00005 37.7282ZM1.00004 29.0001L2.00004 29.0001L1.00004 29.0001ZM127.403 11.2872L126.628 11.9198L127.403 11.2872ZM140.597 27.4411L141.372 26.8085L140.597 27.4411ZM308 603L29.0001 603L29.0001 605L308 605L308 603ZM335 65.7283L335 576L337 576L337 65.7283L335 65.7283ZM162.283 38.7283L308 38.7283L308 36.7283L162.283 36.7283L162.283 38.7283ZM126.628 11.9198L139.823 28.0737L141.372 26.8085L128.177 10.6546L126.628 11.9198ZM29 2.0001L105.717 2.0001L105.717 0.000101938L29 9.52315e-05L29 2.0001ZM2.00005 37.7282L2.00004 29.0001L4.29267e-05 29.0001L4.94159e-05 37.7282L2.00005 37.7282ZM2.00006 576L2.00005 37.7282L4.94159e-05 37.7282L6.03758e-05 576L2.00006 576ZM29 9.52315e-05C12.9838 9.38313e-05 3.10189e-05 12.9838 4.29267e-05 29.0001L2.00004 29.0001C2.00003 14.0884 14.0883 2.00009 29 2.0001L29 9.52315e-05ZM128.177 10.6546C122.669 3.91174 114.424 0.000102699 105.717 0.000101938L105.717 2.0001C113.823 2.0001 121.5 5.64197 126.628 11.9198L128.177 10.6546ZM162.283 36.7283C154.177 36.7283 146.5 33.0864 141.372 26.8085L139.823 28.0737C145.331 34.8166 153.576 38.7283 162.283 38.7283L162.283 36.7283ZM337 65.7283C337 49.712 324.016 36.7283 308 36.7283L308 38.7283C322.912 38.7283 335 50.8166 335 65.7283L337 65.7283ZM29.0001 603C14.0884 603 2.00006 590.912 2.00006 576L6.03758e-05 576C6.0702e-05 592.016 12.9838 605 29.0001 605L29.0001 603ZM308 605C324.016 605 337 592.016 337 576L335 576C335 590.912 322.912 603 308 603L308 605Z" fill="url(#paint0_linear_129_2806)" fill-opacity="0.3" mask="url(#path-1-outside-1_129_2806)"/>
<defs>
<linearGradient id="paint0_linear_129_2806" x1="336" y1="621.559" x2="82.4744" y2="-22.0738" gradientUnits="userSpaceOnUse">
<stop stop-color="white"/>
<stop offset="0.401042" stop-color="#4B4B4B"/>
<stop offset="0.671875" stop-color="#4B4B4B"/>
<stop offset="1" stop-color="white"/>
</linearGradient>
</defs>
</svg>
