<svg width="124" height="74" viewBox="0 0 124 74" fill="none" xmlns="http://www.w3.org/2000/svg">
<g clip-path="url(#clip0_174_14729)">
<g filter="url(#filter0_ii_174_14729)">
<rect width="82.7792" height="50.3951" rx="4" transform="matrix(0.996163 0.0873858 -0.0715791 0.997424 24.1689 8.5835)" fill="#FFEC3D"/>
</g>
<g opacity="0.2">
<path d="M33.7194 60.1186L37.4161 50.6867C37.7891 49.735 38.7407 49.1473 39.7636 49.2371L85.7732 53.2732C86.84 53.3667 87.719 54.1725 87.9085 55.2306L89.6633 65.0261L33.7194 60.1186Z" fill="#888888" stroke="#29363D" stroke-width="0.230463"/>
</g>
<g clip-path="url(#clip1_174_14729)">
<path fill-rule="evenodd" clip-rule="evenodd" d="M28.0057 14.1407C28.7664 14.2075 29.4275 13.6441 29.4821 12.8824C29.5368 12.1206 28.9644 11.449 28.2036 11.3823C27.4429 11.3156 26.7819 11.879 26.7272 12.6407C26.6725 13.4024 27.2449 14.074 28.0057 14.1407ZM28.3444 12.473L28.2764 11.946C28.2603 11.8211 28.0851 11.8057 28.0514 11.9263L27.9091 12.4348C27.8967 12.4792 27.8589 12.5114 27.813 12.5166L27.2884 12.5766C27.1641 12.5908 27.1515 12.7661 27.2722 12.8018L27.7818 12.9525C27.8263 12.9656 27.859 13.0041 27.8649 13.0501L27.9329 13.5771C27.9491 13.7019 28.1242 13.7173 28.1579 13.5968L28.3002 13.0883C28.3127 13.0439 28.3505 13.0116 28.3963 13.0064L28.9209 12.9465C29.0453 12.9323 29.0579 12.7569 28.9371 12.7212L28.4276 12.5706C28.3831 12.5574 28.3503 12.519 28.3444 12.473Z" fill="#29363D"/>
</g>
<g clip-path="url(#clip2_174_14729)">
<path fill-rule="evenodd" clip-rule="evenodd" d="M24.9403 56.8585C25.701 56.9252 26.362 56.3619 26.4167 55.6001C26.4714 54.8384 25.899 54.1668 25.1382 54.1001C24.3775 54.0333 23.7164 54.5967 23.6618 55.3585C23.6071 56.1202 24.1795 56.7918 24.9403 56.8585ZM25.279 55.1907L25.211 54.6638C25.1948 54.5389 25.0197 54.5235 24.986 54.644L24.8437 55.1526C24.8312 55.197 24.7934 55.2292 24.7476 55.2344L24.223 55.2944C24.0986 55.3086 24.086 55.4839 24.2068 55.5196L24.7163 55.6703C24.7608 55.6834 24.7936 55.7218 24.7995 55.7679L24.8675 56.2948C24.8836 56.4197 25.0588 56.4351 25.0925 56.3146L25.2348 55.806C25.2472 55.7616 25.285 55.7294 25.3309 55.7242L25.8555 55.6642C25.9798 55.65 25.9924 55.4747 25.8717 55.439L25.3621 55.2883C25.3176 55.2752 25.2849 55.2368 25.279 55.1907Z" fill="#29363D"/>
</g>
<g clip-path="url(#clip3_174_14729)">
<path fill-rule="evenodd" clip-rule="evenodd" d="M94.7947 19.9996C95.5555 20.0664 96.2165 19.503 96.2712 18.7412C96.3259 17.9795 95.7535 17.3079 94.9927 17.2412C94.2319 17.1745 93.5709 17.7379 93.5163 18.4996C93.4616 19.2613 94.034 19.9329 94.7947 19.9996ZM95.1335 18.3319L95.0654 17.8049C95.0493 17.68 94.8742 17.6646 94.8405 17.7851L94.6982 18.2937C94.6857 18.3381 94.6479 18.3703 94.6021 18.3755L94.0775 18.4355C93.9531 18.4497 93.9405 18.625 94.0613 18.6607L94.5708 18.8114C94.6153 18.8245 94.6481 18.863 94.654 18.909L94.722 19.4359C94.7381 19.5608 94.9133 19.5762 94.947 19.4557L95.0893 18.9471C95.1017 18.9028 95.1395 18.8705 95.1853 18.8653L95.71 18.8054C95.8343 18.7911 95.8469 18.6158 95.7262 18.5801L95.2166 18.4294C95.1721 18.4163 95.1394 18.3779 95.1335 18.3319Z" fill="#29363D"/>
</g>
<g clip-path="url(#clip4_174_14729)">
<path fill-rule="evenodd" clip-rule="evenodd" d="M91.7293 62.7174C92.4901 62.7841 93.1511 62.2207 93.2058 61.459C93.2604 60.6973 92.688 60.0257 91.9273 59.959C91.1665 59.8922 90.5055 60.4556 90.4508 61.2173C90.3962 61.9791 90.9686 62.6507 91.7293 62.7174ZM92.068 61.0496L92 60.5227C91.9839 60.3978 91.8088 60.3824 91.775 60.5029L91.6327 61.0114C91.6203 61.0558 91.5825 61.0881 91.5367 61.0933L91.012 61.1532C90.8877 61.1674 90.8751 61.3428 90.9959 61.3785L91.5054 61.5292C91.5499 61.5423 91.5826 61.5807 91.5886 61.6267L91.6566 62.1537C91.6727 62.2786 91.8478 62.294 91.8815 62.1734L92.0239 61.6649C92.0363 61.6205 92.0741 61.5883 92.1199 61.5831L92.6446 61.5231C92.7689 61.5089 92.7815 61.3336 92.6607 61.2979L92.1512 61.1472C92.1067 61.1341 92.074 61.0956 92.068 61.0496Z" fill="#29363D"/>
</g>
<mask id="mask0_174_14729" style="mask-type:alpha" maskUnits="userSpaceOnUse" x="26" y="13" width="76" height="39">
<path d="M97.3149 19.0865L32.7851 13.4258C32.1375 13.369 31.4979 13.5713 31.0061 13.9885L28.9245 15.7544C28.4298 16.1741 28.1254 16.7767 28.0786 17.4289L26.227 43.2303C26.1298 44.5845 27.1474 45.7785 28.4999 45.8971L96.9151 51.8987C98.2676 52.0173 99.4427 51.0157 99.5399 49.6615L101.392 23.86C101.438 23.2078 101.224 22.5597 100.795 22.0591L98.9913 19.9523C98.5652 19.4546 97.9625 19.1433 97.3149 19.0865Z" fill="#EDA35F"/>
</mask>
<g mask="url(#mask0_174_14729)">
<g clip-path="url(#clip5_174_14729)">
<rect width="74" height="24.4126" transform="matrix(0.996163 0.0873858 -0.0715791 0.997424 28.4287 13.0823)" fill="white"/>
<rect width="74" height="1.8437" transform="matrix(0.996163 0.0873858 -0.0715791 0.997424 26.6816 37.4319)" fill="#7F7F7F"/>
<rect width="74" height="1.8437" transform="matrix(0.996163 0.0873858 -0.0715791 0.997424 26.5498 39.2708)" fill="#7F7F7F"/>
<rect width="74" height="24.4126" transform="matrix(0.996163 0.0873858 -0.0715791 0.997424 26.417 41.1099)" fill="#7F7F7F"/>
</g>
</g>
<rect width="73.6154" height="16.4947" transform="matrix(0.996163 0.0873858 -0.0715791 0.997424 27.8262 21.8542)" fill="#7F7F7F"/>
<g clip-path="url(#clip6_174_14729)">
<path d="M39.4429 32.901C39.7101 29.1771 42.9418 26.4227 46.6611 26.749L81.7115 29.8237C85.4307 30.1499 88.2291 33.4333 87.9619 37.1572L87.9509 37.3109C87.6836 41.0348 84.4519 43.7892 80.7327 43.4629L45.6822 40.3882C41.963 40.062 39.1646 36.7786 39.4318 33.0547L39.4429 32.901Z" fill="white"/>
<circle cx="4.53243" cy="4.53243" r="4.4172" transform="matrix(0.996163 0.0873858 -0.0715791 0.997424 76.4707 31.8406)" fill="#BABABA" stroke="#29363D" stroke-width="0.230463"/>
<path fill-rule="evenodd" clip-rule="evenodd" d="M84.0066 36.6258L83.1946 36.5546L83.134 37.3986L83.9461 37.4698C83.765 38.3824 83.2199 39.1465 82.4772 39.6203L82.1221 38.8815L81.3618 39.2394L81.7171 39.9787C81.3036 40.1126 80.856 40.1673 80.3933 40.1267C79.93 40.0861 79.4952 39.9537 79.1056 39.7489L79.5626 39.0798L78.8628 38.5938L78.4064 39.2621C77.7414 38.6648 77.3126 37.8157 77.2639 36.8837L78.0761 36.9549L78.1367 36.1109L77.3247 36.0396C77.506 35.1276 78.0511 34.3639 78.7935 33.8903L79.1486 34.6292L79.9089 34.2713L79.5536 33.5319C79.967 33.3981 80.4146 33.3433 80.8772 33.3839C81.3404 33.4245 81.775 33.5569 82.1645 33.7615L81.7081 34.4297L82.4079 34.9158L82.8638 34.2482C83.5287 34.8453 83.9576 35.694 84.0066 36.6258Z" fill="#29363D"/>
<circle cx="4.53243" cy="4.53243" r="4.4172" transform="matrix(0.996163 0.0873858 -0.0715791 0.997424 42.8115 28.8879)" fill="#BABABA" stroke="#29363D" stroke-width="0.230463"/>
<path fill-rule="evenodd" clip-rule="evenodd" d="M50.3464 33.6729L49.5344 33.6017L49.4738 34.4457L50.286 34.5169C50.1049 35.4295 49.5597 36.1936 48.817 36.6674L48.462 35.9286L47.7016 36.2866L48.0569 37.0258C47.6435 37.1597 47.1959 37.2144 46.7332 37.1739C46.2698 37.1332 45.8351 37.0008 45.4455 36.796L45.9024 36.1269L45.2027 35.6409L44.7463 36.3092C44.0812 35.7119 43.6524 34.8628 43.6038 33.9308L44.416 34.002L44.4766 33.158L43.6645 33.0868C43.8459 32.1747 44.3909 31.411 45.1334 30.9374L45.4885 31.6764L46.2488 31.3184L45.8935 30.579C46.3069 30.4452 46.7544 30.3904 47.2171 30.431C47.6802 30.4717 48.1148 30.604 48.5043 30.8086L48.048 31.4768L48.7477 31.9629L49.2036 31.2953C49.8686 31.8924 50.2974 32.7411 50.3464 33.6729Z" fill="#29363D"/>
</g>
<mask id="mask1_174_14729" style="mask-type:alpha" maskUnits="userSpaceOnUse" x="54" y="30" width="20" height="10">
<rect width="18.4372" height="7.37489" rx="1.22913" transform="matrix(0.996163 0.0873858 -0.0715791 0.997424 55.0176 30.4893)" fill="#D9D9D9"/>
</mask>
<g mask="url(#mask1_174_14729)">
<path d="M47.6071 23.6932C41.53 23.1601 36.2932 27.0656 35.9095 32.4129C35.5257 37.7602 40.1402 42.5263 46.2173 43.0594C52.2944 43.5925 57.5309 39.6906 57.9146 34.3433C58.2983 28.996 53.6841 24.2263 47.6071 23.6932ZM47.1612 29.9063C49.3404 30.0974 50.9953 31.8068 50.8577 33.7242C50.7201 35.6417 48.8421 37.0411 46.6629 36.8499C44.4837 36.6587 42.8288 34.9495 42.9664 33.032C43.104 31.1146 44.982 29.7151 47.1612 29.9063Z" fill="#1A1A1A" stroke="black" stroke-width="0.948019" stroke-linecap="round"/>
<path d="M73.4821 25.963C67.405 25.4299 62.1682 29.3354 61.7845 34.6827C61.4007 40.03 66.0152 44.7961 72.0923 45.3292C78.1694 45.8623 83.4059 41.9603 83.7896 36.613C84.1733 31.2657 79.5591 26.4961 73.4821 25.963ZM73.0362 32.176C75.2154 32.3672 76.8703 34.0766 76.7327 35.994C76.5951 37.9115 74.7171 39.3109 72.5379 39.1197C70.3587 38.9285 68.7038 37.2192 68.8414 35.3017C68.979 33.3844 70.857 31.9849 73.0362 32.176Z" fill="#1A1A1A" stroke="black" stroke-width="0.948019" stroke-linecap="round"/>
<path d="M47.3496 27.2791C43.5236 26.9435 40.226 29.4011 39.9843 32.7683C39.7427 36.1355 42.6485 39.1373 46.4745 39.4729C50.3005 39.8085 53.5981 37.3509 53.8398 33.9837C54.0814 30.6166 51.1756 27.6147 47.3496 27.2791ZM47.1503 30.0561C49.2337 30.2389 50.8159 31.8734 50.6843 33.7069C50.5528 35.5405 48.7572 36.8787 46.6738 36.6959C44.5904 36.5132 43.0082 34.8787 43.1397 33.0451C43.2713 31.2116 45.0669 29.8733 47.1503 30.0561Z" fill="#B3B3B3" stroke="#AAAAAA" stroke-width="0.948019" stroke-linecap="round"/>
<path d="M73.2256 29.5491C69.3996 29.2135 66.102 31.6711 65.8603 35.0383C65.6187 38.4055 68.5245 41.4073 72.3505 41.7429C76.1765 42.0786 79.4741 39.6209 79.7157 36.2537C79.9574 32.8866 77.0516 29.8847 73.2256 29.5491ZM73.0263 32.3261C75.1097 32.5089 76.6919 34.1435 76.5603 35.9769C76.4287 37.8105 74.6332 39.1487 72.5498 38.9659C70.4663 38.7832 68.8841 37.1487 69.0157 35.3151C69.1473 33.4816 70.9428 32.1434 73.0263 32.3261Z" fill="#B3B3B3" stroke="#AAAAAA" stroke-width="0.948019" stroke-linecap="round"/>
</g>
</g>
<defs>
<filter id="filter0_ii_174_14729" x="19.8379" y="7.91748" width="87.1275" height="58.442" filterUnits="userSpaceOnUse" color-interpolation-filters="sRGB">
<feFlood flood-opacity="0" result="BackgroundImageFix"/>
<feBlend mode="normal" in="SourceGraphic" in2="BackgroundImageFix" result="shape"/>
<feColorMatrix in="SourceAlpha" type="matrix" values="0 0 0 0 0 0 0 0 0 0 0 0 0 0 0 0 0 0 127 0" result="hardAlpha"/>
<feOffset dx="0.610909" dy="0.610909"/>
<feGaussianBlur stdDeviation="1"/>
<feComposite in2="hardAlpha" operator="arithmetic" k2="-1" k3="1"/>
<feColorMatrix type="matrix" values="0 0 0 0 1 0 0 0 0 1 0 0 0 0 1 0 0 0 0.8 0"/>
<feBlend mode="normal" in2="shape" result="effect1_innerShadow_174_14729"/>
<feColorMatrix in="SourceAlpha" type="matrix" values="0 0 0 0 0 0 0 0 0 0 0 0 0 0 0 0 0 0 127 0" result="hardAlpha"/>
<feOffset dx="-1" dy="-1"/>
<feGaussianBlur stdDeviation="0.5"/>
<feComposite in2="hardAlpha" operator="arithmetic" k2="-1" k3="1"/>
<feColorMatrix type="matrix" values="0 0 0 0 0 0 0 0 0 0 0 0 0 0 0 0 0 0 0.5 0"/>
<feBlend mode="normal" in2="effect1_innerShadow_174_14729" result="effect2_innerShadow_174_14729"/>
</filter>
<clipPath id="clip0_174_14729">
<rect width="84.6968" height="51.3191" fill="white" transform="matrix(0.996919 0.0784437 -0.0797505 0.996815 24.0928 8)"/>
</clipPath>
<clipPath id="clip1_174_14729">
<rect width="2.69547" height="2.69547" fill="white" transform="matrix(0.996163 0.0873858 -0.0715791 0.997424 26.8262 11.2615)"/>
</clipPath>
<clipPath id="clip2_174_14729">
<rect width="2.69547" height="2.69547" fill="white" transform="matrix(0.996163 0.0873858 -0.0715791 0.997424 23.7607 53.9792)"/>
</clipPath>
<clipPath id="clip3_174_14729">
<rect width="2.69547" height="2.69547" fill="white" transform="matrix(0.996163 0.0873858 -0.0715791 0.997424 93.6152 17.1204)"/>
</clipPath>
<clipPath id="clip4_174_14729">
<rect width="2.69547" height="2.69547" fill="white" transform="matrix(0.996163 0.0873858 -0.0715791 0.997424 90.5498 59.8381)"/>
</clipPath>
<clipPath id="clip5_174_14729">
<rect width="73.5953" height="32.7261" fill="white" transform="matrix(0.996163 0.0873858 -0.0715791 0.997424 28.3936 13.0405)"/>
</clipPath>
<clipPath id="clip6_174_14729">
<rect width="48.7059" height="13.6745" rx="6.76024" transform="matrix(0.996163 0.0873858 -0.0715791 0.997424 39.9268 26.1582)" fill="white"/>
</clipPath>
</defs>
</svg>
